<svg width="36" height="36" viewBox="0 0 36 36" fill="none" xmlns="http://www.w3.org/2000/svg">
<g clip-path="url(#clip0_1_5302)">
<path d="M14.25 14.25V12C14.25 11.4033 14.4871 10.831 14.909 10.409C15.331 9.98705 15.9033 9.75 16.5 9.75H19.5C20.0967 9.75 20.669 9.98705 21.091 10.409C21.5129 10.831 21.75 11.4033 21.75 12C21.75 12.5967 21.5129 13.169 21.091 13.591C20.669 14.0129 20.0967 14.25 19.5 14.25H9.75V22.5C9.75 23.4946 10.1451 24.4484 10.8483 25.1517C11.5516 25.8549 12.5054 26.25 13.5 26.25H22.5C23.4946 26.25 24.4484 25.8549 25.1517 25.1517C25.8549 24.4484 26.25 23.4946 26.25 22.5V14.25H23.5" stroke="#111111" stroke-width="1.5"/>
</g>
<path d="M15.3542 24V23.2841L17.5691 20.9893C17.8056 20.7401 18.0005 20.5217 18.1539 20.3342C18.3095 20.1445 18.4256 19.9645 18.5023 19.794C18.579 19.6236 18.6174 19.4425 18.6174 19.2507C18.6174 19.0334 18.5662 18.8459 18.464 18.6882C18.3617 18.5284 18.2221 18.4059 18.0453 18.3207C17.8684 18.2333 17.6692 18.1896 17.4476 18.1896C17.2132 18.1896 17.0087 18.2376 16.834 18.3335C16.6593 18.4293 16.525 18.5646 16.4313 18.7393C16.3375 18.9141 16.2907 19.1186 16.2907 19.353H15.3478C15.3478 18.9545 15.4395 18.6062 15.6227 18.3079C15.8059 18.0096 16.0574 17.7784 16.377 17.6143C16.6966 17.4482 17.0598 17.3651 17.4668 17.3651C17.878 17.3651 18.2402 17.4471 18.5534 17.6112C18.8688 17.7731 19.1149 17.9947 19.2917 18.2759C19.4686 18.555 19.557 18.8704 19.557 19.2219C19.557 19.4648 19.5112 19.7024 19.4196 19.9347C19.3301 20.1669 19.1735 20.4258 18.9498 20.7113C18.726 20.9947 18.415 21.3388 18.0165 21.7436L16.7157 23.1051V23.1531H19.6625V24H15.3542Z" fill="#111111"/>
<defs>
<clipPath id="clip0_1_5302">
<rect width="24" height="24" fill="white" transform="translate(6 6)"/>
</clipPath>
</defs>
</svg>
